<?xml version="1.0" encoding="UTF-8"?>
<!DOCTYPE svg PUBLIC "-//W3C//DTD SVG 1.1//EN" "http://www.w3.org/Graphics/SVG/1.1/DTD/svg11.dtd">
<svg version="1.1" xmlns="http://www.w3.org/2000/svg" xmlns:xlink="http://www.w3.org/1999/xlink" x="0px" y="0px" width="128" height="128" viewBox="0, 0, 128, 128">
  <g id="Background">
    <rect x="0" y="0" width="128" height="128" fill="#000000" fill-opacity="0"/>
  </g>
  <g id="Background">
    <path d="M18.093,6 L109.907,6 C116.561,6 122,11.439 122,18.093 L122,109.907 C122,116.561 116.561,122 109.907,122 L18.093,122 C11.439,122 6,116.561 6,109.907 L6,18.093 C6,11.439 11.439,6 18.093,6" fill="#727272"/>
    <path d="M24.112,98.22 L24.112,54.222 L44.377,54.222 L44.377,98.22 z M24.112,46.386 L24.112,28.406 L44.377,28.406 L44.377,46.386 z M109.441,51.076 C109.441,54.287 108.774,57.227 107.437,59.903 C106.098,62.576 104.276,64.901 101.969,66.873 C99.664,68.846 96.938,70.385 93.794,71.49 C90.653,72.59 87.274,73.143 83.665,73.143 L72.632,73.143 L72.632,98.22 L52.469,98.22 L52.469,28.406 L83.364,28.406 C87.374,28.406 90.986,28.941 94.197,30.009 C97.408,31.082 100.129,32.585 102.372,34.525 C104.61,36.461 106.35,38.836 107.587,41.646 C108.824,44.454 109.441,47.6 109.441,51.076 z M89.584,50.976 C89.584,48.367 88.795,46.577 87.223,45.609 C85.652,44.641 83.767,44.153 81.556,44.153 L72.632,44.153 L72.632,57.498 L81.957,57.498 C82.829,57.498 83.73,57.378 84.666,57.145 C85.602,56.908 86.423,56.524 87.123,55.99 C87.827,55.456 88.41,54.789 88.88,53.985 C89.348,53.181 89.584,52.181 89.584,50.976" fill="#EBEDED"/>
    <path d="M82.61,37.343 C74.91,37.343 68.663,43.586 68.663,51.287 C68.663,58.986 74.91,65.234 82.61,65.234 C90.311,65.234 96.554,58.986 96.554,51.287 C96.554,43.586 90.311,37.343 82.61,37.343" fill="#EBECEC"/>
    <path d="M60.662,68.384 L69.339,59.708 C67.659,57.059 66.681,53.921 66.681,50.555 C66.681,41.106 74.368,33.42 83.817,33.42 C93.266,33.42 100.951,41.106 100.951,50.555 C100.951,60.004 93.266,67.691 83.817,67.691 C80.62,67.691 77.624,66.808 75.062,65.279 L66.312,74.029 C62.576,77.765 56.926,72.12 60.662,68.384 z M95.636,50.555 C95.636,44.038 90.334,38.736 83.817,38.736 C77.3,38.736 71.998,44.038 71.998,50.555 C71.998,57.072 77.3,62.374 83.817,62.374 C90.334,62.374 95.636,57.072 95.636,50.555 z M92.136,47.481 C88.676,39.466 77.029,40.394 74.838,48.788 C79.259,43.605 87.031,43.043 92.136,47.481" fill="#727272"/>
  </g>
  <defs/>
</svg>
